<svg xmlns="http://www.w3.org/2000/svg" xmlns:xlink="http://www.w3.org/1999/xlink" width="160" zoomAndPan="magnify" viewBox="0 0 120 37.5" height="50" preserveAspectRatio="xMidYMid meet" version="1.0"><defs><g/><clipPath id="a23110fc0b"><path d="M 29.769531 6.347656 L 88.980469 6.347656 L 88.980469 27 L 29.769531 27 Z M 29.769531 6.347656 " clip-rule="nonzero"/></clipPath><clipPath id="f1364eff69"><path d="M 75 18 L 88.980469 18 L 88.980469 30.773438 L 75 30.773438 Z M 75 18 " clip-rule="nonzero"/></clipPath><clipPath id="5769562862"><path d="M 32.863281 8.511719 L 48.40625 8.511719 L 48.40625 24.054688 L 32.863281 24.054688 Z M 32.863281 8.511719 " clip-rule="nonzero"/></clipPath></defs><g clip-path="url(#a23110fc0b)"><path fill="#6b40d4" d="M 35.039062 6.347656 L 83.882812 6.347656 C 84.230469 6.347656 84.570312 6.382812 84.910156 6.449219 C 85.25 6.515625 85.578125 6.617188 85.898438 6.75 C 86.21875 6.882812 86.523438 7.042969 86.808594 7.234375 C 87.097656 7.429688 87.363281 7.648438 87.609375 7.890625 C 87.851562 8.136719 88.070312 8.402344 88.261719 8.6875 C 88.453125 8.976562 88.617188 9.28125 88.75 9.601562 C 88.882812 9.917969 88.980469 10.25 89.050781 10.589844 C 89.117188 10.925781 89.148438 11.269531 89.148438 11.617188 L 89.148438 21.519531 C 89.148438 21.863281 89.117188 22.207031 89.050781 22.546875 C 88.980469 22.886719 88.882812 23.214844 88.75 23.535156 C 88.617188 23.855469 88.453125 24.15625 88.261719 24.445312 C 88.070312 24.734375 87.851562 25 87.609375 25.242188 C 87.363281 25.488281 87.097656 25.707031 86.808594 25.898438 C 86.523438 26.089844 86.21875 26.253906 85.898438 26.386719 C 85.578125 26.515625 85.25 26.617188 84.910156 26.683594 C 84.570312 26.753906 84.230469 26.785156 83.882812 26.785156 L 35.039062 26.785156 C 34.695312 26.785156 34.351562 26.753906 34.011719 26.683594 C 33.675781 26.617188 33.34375 26.515625 33.027344 26.386719 C 32.707031 26.253906 32.402344 26.089844 32.113281 25.898438 C 31.828125 25.707031 31.5625 25.488281 31.316406 25.242188 C 31.070312 25 30.855469 24.734375 30.660156 24.445312 C 30.46875 24.15625 30.308594 23.855469 30.175781 23.535156 C 30.042969 23.214844 29.941406 22.886719 29.875 22.546875 C 29.808594 22.207031 29.773438 21.863281 29.773438 21.519531 L 29.773438 11.617188 C 29.773438 11.269531 29.808594 10.925781 29.875 10.589844 C 29.941406 10.25 30.042969 9.917969 30.175781 9.601562 C 30.308594 9.28125 30.46875 8.976562 30.660156 8.6875 C 30.855469 8.402344 31.070312 8.136719 31.316406 7.890625 C 31.5625 7.648438 31.828125 7.429688 32.113281 7.234375 C 32.402344 7.042969 32.707031 6.882812 33.027344 6.75 C 33.34375 6.617188 33.675781 6.515625 34.011719 6.449219 C 34.351562 6.382812 34.695312 6.347656 35.039062 6.347656 Z M 35.039062 6.347656 " fill-opacity="1" fill-rule="nonzero"/></g><g clip-path="url(#f1364eff69)"><path fill="#6b40d4" d="M 75.078125 19 L 89.183594 30.65625 L 89.117188 18.324219 L 75.074219 18.398438 " fill-opacity="1" fill-rule="nonzero"/></g><g clip-path="url(#5769562862)"><path fill="#6b40d4" d="M 48.636719 9.886719 C 48.636719 9.128906 48.023438 8.511719 47.261719 8.511719 L 34.238281 8.511719 C 33.480469 8.511719 32.863281 9.128906 32.863281 9.886719 L 32.863281 22.910156 C 32.863281 23.671875 33.480469 24.285156 34.238281 24.285156 L 47.261719 24.285156 C 48.023438 24.285156 48.636719 23.671875 48.636719 22.910156 Z M 48.636719 9.886719 " fill-opacity="1" fill-rule="evenodd"/></g><path fill="#ffffff" d="M 36.097656 21.160156 L 36.558594 19.546875 C 35.898438 18.667969 35.507812 17.578125 35.507812 16.398438 C 35.507812 13.503906 37.855469 11.15625 40.75 11.15625 C 43.644531 11.15625 45.996094 13.503906 45.996094 16.398438 C 45.996094 19.292969 43.644531 21.644531 40.75 21.644531 C 39.625 21.644531 38.644531 21.179688 37.722656 20.679688 Z M 35.628906 19.886719 L 34.800781 22.457031 L 37.402344 21.613281 C 38.367188 22.234375 39.519531 22.597656 40.75 22.597656 C 44.171875 22.597656 46.949219 19.820312 46.949219 16.398438 C 46.949219 12.980469 44.171875 10.203125 40.75 10.203125 C 37.332031 10.203125 34.554688 12.980469 34.554688 16.398438 C 34.554688 17.691406 34.949219 18.890625 35.628906 19.886719 Z M 35.628906 19.886719 " fill-opacity="1" fill-rule="evenodd"/><path fill="#ffffff" d="M 38.449219 13.722656 C 37.90625 14.265625 37.800781 15.109375 38.195312 15.769531 C 38.480469 16.246094 38.929688 16.84375 39.632812 17.546875 C 40.324219 18.238281 40.902344 18.675781 41.367188 18.957031 C 42.03125 19.351562 42.875 19.25 43.421875 18.703125 C 43.457031 18.671875 43.488281 18.636719 43.523438 18.605469 C 43.742188 18.382812 43.742188 18.023438 43.523438 17.804688 C 43.367188 17.648438 43.191406 17.46875 43.035156 17.316406 C 42.929688 17.207031 42.785156 17.148438 42.632812 17.148438 C 42.480469 17.148438 42.335938 17.207031 42.230469 17.316406 C 42.15625 17.390625 42.097656 17.445312 42.097656 17.445312 C 42.097656 17.445312 41.421875 17.5 40.65625 16.738281 C 39.894531 15.976562 39.703125 15.050781 39.703125 15.050781 C 39.703125 15.050781 39.757812 14.992188 39.835938 14.917969 C 39.941406 14.8125 40 14.667969 40 14.515625 C 40 14.367188 39.941406 14.222656 39.835938 14.113281 C 39.679688 13.960938 39.5 13.78125 39.347656 13.628906 C 39.125 13.40625 38.765625 13.40625 38.542969 13.628906 C 38.511719 13.65625 38.480469 13.6875 38.449219 13.722656 Z M 38.449219 13.722656 " fill-opacity="1" fill-rule="evenodd"/><g fill="#ffffff" fill-opacity="1"><g transform="translate(50.364525, 20.476974)"><g><path d="M 0.859375 0.015625 C 0.710938 0.015625 0.582031 -0.0078125 0.46875 -0.0625 C 0.363281 -0.125 0.28125 -0.210938 0.21875 -0.328125 C 0.15625 -0.453125 0.125 -0.601562 0.125 -0.78125 C 0.125 -0.957031 0.15625 -1.101562 0.21875 -1.21875 C 0.28125 -1.34375 0.363281 -1.429688 0.46875 -1.484375 C 0.582031 -1.546875 0.710938 -1.578125 0.859375 -1.578125 C 1.003906 -1.578125 1.128906 -1.546875 1.234375 -1.484375 C 1.335938 -1.429688 1.414062 -1.347656 1.46875 -1.234375 L 1.234375 -1.09375 L 1.203125 -1.09375 C 1.171875 -1.175781 1.125 -1.234375 1.0625 -1.265625 C 1.007812 -1.296875 0.941406 -1.3125 0.859375 -1.3125 C 0.722656 -1.3125 0.617188 -1.269531 0.546875 -1.1875 C 0.472656 -1.101562 0.4375 -0.96875 0.4375 -0.78125 C 0.4375 -0.59375 0.472656 -0.457031 0.546875 -0.375 C 0.617188 -0.289062 0.722656 -0.25 0.859375 -0.25 C 1.054688 -0.25 1.175781 -0.347656 1.21875 -0.546875 L 1.25 -0.546875 L 1.484375 -0.421875 C 1.441406 -0.273438 1.367188 -0.164062 1.265625 -0.09375 C 1.160156 -0.0195312 1.023438 0.015625 0.859375 0.015625 Z M 0.859375 0.015625 "/></g></g><g transform="translate(51.90004, 20.476974)"><g><path d="M 0.484375 0.015625 C 0.378906 0.015625 0.296875 -0.0078125 0.234375 -0.0625 C 0.179688 -0.125 0.15625 -0.210938 0.15625 -0.328125 L 0.15625 -1.65625 L 0.453125 -1.65625 L 0.453125 -0.34375 C 0.453125 -0.269531 0.484375 -0.234375 0.546875 -0.234375 C 0.566406 -0.234375 0.585938 -0.234375 0.609375 -0.234375 L 0.625 -0.234375 L 0.640625 0 C 0.628906 0 0.609375 0 0.578125 0 C 0.546875 0.0078125 0.515625 0.015625 0.484375 0.015625 Z M 0.484375 0.015625 "/></g></g><g transform="translate(52.578921, 20.476974)"><g><path d="M 0.3125 -1.3125 C 0.257812 -1.3125 0.21875 -1.328125 0.1875 -1.359375 C 0.15625 -1.398438 0.140625 -1.445312 0.140625 -1.5 C 0.140625 -1.539062 0.15625 -1.578125 0.1875 -1.609375 C 0.21875 -1.648438 0.257812 -1.671875 0.3125 -1.671875 C 0.351562 -1.671875 0.382812 -1.660156 0.40625 -1.640625 C 0.4375 -1.628906 0.457031 -1.609375 0.46875 -1.578125 C 0.488281 -1.554688 0.5 -1.53125 0.5 -1.5 C 0.5 -1.457031 0.488281 -1.421875 0.46875 -1.390625 C 0.457031 -1.367188 0.4375 -1.347656 0.40625 -1.328125 C 0.382812 -1.316406 0.351562 -1.3125 0.3125 -1.3125 Z M 0.171875 0 L 0.171875 -1.171875 L 0.46875 -1.171875 L 0.46875 0 Z M 0.171875 0 "/></g></g><g transform="translate(53.214972, 20.476974)"><g><path d="M 0.6875 0.015625 C 0.570312 0.015625 0.46875 -0.00390625 0.375 -0.046875 C 0.289062 -0.0976562 0.222656 -0.164062 0.171875 -0.25 C 0.128906 -0.34375 0.109375 -0.457031 0.109375 -0.59375 C 0.109375 -0.71875 0.128906 -0.828125 0.171875 -0.921875 C 0.222656 -1.015625 0.289062 -1.082031 0.375 -1.125 C 0.46875 -1.175781 0.570312 -1.203125 0.6875 -1.203125 C 0.925781 -1.203125 1.082031 -1.113281 1.15625 -0.9375 L 0.953125 -0.78125 L 0.9375 -0.78125 C 0.90625 -0.84375 0.867188 -0.882812 0.828125 -0.90625 C 0.796875 -0.9375 0.75 -0.953125 0.6875 -0.953125 C 0.59375 -0.953125 0.519531 -0.921875 0.46875 -0.859375 C 0.425781 -0.796875 0.40625 -0.707031 0.40625 -0.59375 C 0.40625 -0.46875 0.429688 -0.375 0.484375 -0.3125 C 0.535156 -0.257812 0.601562 -0.234375 0.6875 -0.234375 C 0.75 -0.234375 0.800781 -0.25 0.84375 -0.28125 C 0.894531 -0.3125 0.925781 -0.359375 0.9375 -0.421875 L 0.96875 -0.4375 L 1.171875 -0.3125 C 1.148438 -0.21875 1.097656 -0.140625 1.015625 -0.078125 C 0.929688 -0.015625 0.820312 0.015625 0.6875 0.015625 Z M 0.6875 0.015625 "/></g></g><g transform="translate(54.432462, 20.476974)"><g><path d="M 0.171875 0 L 0.171875 -1.65625 L 0.46875 -1.65625 L 0.46875 -0.734375 L 0.5 -0.734375 L 0.828125 -1.171875 L 1.140625 -1.171875 L 1.140625 -1.15625 L 0.734375 -0.640625 L 1.1875 -0.03125 L 1.1875 0 L 0.875 0 L 0.5 -0.5 L 0.46875 -0.5 L 0.46875 0 Z M 0.171875 0 "/></g></g><g transform="translate(55.617828, 20.476974)"><g/></g><g transform="translate(56.13502, 20.476974)"><g><path d="M 1.25 -1.5625 L 1.25 -1.296875 L 0.796875 -1.296875 L 0.796875 0 L 0.5 0 L 0.5 -1.296875 L 0.046875 -1.296875 L 0.046875 -1.5625 Z M 1.25 -1.5625 "/></g></g><g transform="translate(57.432819, 20.476974)"><g><path d="M 0.6875 0.015625 C 0.570312 0.015625 0.46875 -0.00390625 0.375 -0.046875 C 0.289062 -0.0976562 0.222656 -0.164062 0.171875 -0.25 C 0.128906 -0.34375 0.109375 -0.457031 0.109375 -0.59375 C 0.109375 -0.71875 0.128906 -0.828125 0.171875 -0.921875 C 0.222656 -1.015625 0.289062 -1.082031 0.375 -1.125 C 0.46875 -1.175781 0.570312 -1.203125 0.6875 -1.203125 C 0.800781 -1.203125 0.898438 -1.175781 0.984375 -1.125 C 1.078125 -1.082031 1.144531 -1.015625 1.1875 -0.921875 C 1.238281 -0.828125 1.265625 -0.71875 1.265625 -0.59375 C 1.265625 -0.457031 1.238281 -0.34375 1.1875 -0.25 C 1.144531 -0.164062 1.078125 -0.0976562 0.984375 -0.046875 C 0.898438 -0.00390625 0.800781 0.015625 0.6875 0.015625 Z M 0.6875 -0.234375 C 0.863281 -0.234375 0.953125 -0.351562 0.953125 -0.59375 C 0.953125 -0.71875 0.925781 -0.804688 0.875 -0.859375 C 0.832031 -0.921875 0.769531 -0.953125 0.6875 -0.953125 C 0.5 -0.953125 0.40625 -0.832031 0.40625 -0.59375 C 0.40625 -0.351562 0.5 -0.234375 0.6875 -0.234375 Z M 0.6875 -0.234375 "/></g></g><g transform="translate(58.805574, 20.476974)"><g/></g><g transform="translate(59.322766, 20.476974)"><g><path d="M 0.859375 0.015625 C 0.710938 0.015625 0.582031 -0.0078125 0.46875 -0.0625 C 0.363281 -0.125 0.28125 -0.210938 0.21875 -0.328125 C 0.15625 -0.453125 0.125 -0.601562 0.125 -0.78125 C 0.125 -0.957031 0.15625 -1.101562 0.21875 -1.21875 C 0.28125 -1.34375 0.363281 -1.429688 0.46875 -1.484375 C 0.582031 -1.546875 0.710938 -1.578125 0.859375 -1.578125 C 1.003906 -1.578125 1.128906 -1.546875 1.234375 -1.484375 C 1.335938 -1.429688 1.414062 -1.347656 1.46875 -1.234375 L 1.234375 -1.09375 L 1.203125 -1.09375 C 1.171875 -1.175781 1.125 -1.234375 1.0625 -1.265625 C 1.007812 -1.296875 0.941406 -1.3125 0.859375 -1.3125 C 0.722656 -1.3125 0.617188 -1.269531 0.546875 -1.1875 C 0.472656 -1.101562 0.4375 -0.96875 0.4375 -0.78125 C 0.4375 -0.59375 0.472656 -0.457031 0.546875 -0.375 C 0.617188 -0.289062 0.722656 -0.25 0.859375 -0.25 C 1.054688 -0.25 1.175781 -0.347656 1.21875 -0.546875 L 1.25 -0.546875 L 1.484375 -0.421875 C 1.441406 -0.273438 1.367188 -0.164062 1.265625 -0.09375 C 1.160156 -0.0195312 1.023438 0.015625 0.859375 0.015625 Z M 0.859375 0.015625 "/></g></g><g transform="translate(60.858282, 20.476974)"><g><path d="M 0.171875 0 L 0.171875 -1.65625 L 0.46875 -1.65625 L 0.46875 -1.03125 L 0.484375 -1.015625 C 0.523438 -1.078125 0.570312 -1.125 0.625 -1.15625 C 0.6875 -1.1875 0.757812 -1.203125 0.84375 -1.203125 C 1.101562 -1.203125 1.234375 -1.054688 1.234375 -0.765625 L 1.234375 0 L 0.9375 0 L 0.9375 -0.71875 C 0.9375 -0.800781 0.921875 -0.859375 0.890625 -0.890625 C 0.859375 -0.929688 0.804688 -0.953125 0.734375 -0.953125 C 0.648438 -0.953125 0.582031 -0.921875 0.53125 -0.859375 C 0.488281 -0.804688 0.46875 -0.722656 0.46875 -0.609375 L 0.46875 0 Z M 0.171875 0 "/></g></g><g transform="translate(62.241744, 20.476974)"><g><path d="M 0.453125 0.015625 C 0.378906 0.015625 0.3125 0.00390625 0.25 -0.015625 C 0.195312 -0.046875 0.15625 -0.0859375 0.125 -0.140625 C 0.101562 -0.191406 0.09375 -0.253906 0.09375 -0.328125 C 0.09375 -0.398438 0.101562 -0.457031 0.125 -0.5 C 0.15625 -0.550781 0.203125 -0.59375 0.265625 -0.625 C 0.335938 -0.65625 0.421875 -0.679688 0.515625 -0.703125 C 0.585938 -0.710938 0.640625 -0.722656 0.671875 -0.734375 C 0.710938 -0.742188 0.738281 -0.757812 0.75 -0.78125 C 0.757812 -0.800781 0.765625 -0.820312 0.765625 -0.84375 C 0.765625 -0.882812 0.75 -0.914062 0.71875 -0.9375 C 0.695312 -0.957031 0.660156 -0.96875 0.609375 -0.96875 C 0.535156 -0.96875 0.46875 -0.953125 0.40625 -0.921875 C 0.351562 -0.890625 0.304688 -0.847656 0.265625 -0.796875 L 0.234375 -0.796875 L 0.109375 -0.984375 C 0.171875 -1.054688 0.242188 -1.109375 0.328125 -1.140625 C 0.421875 -1.179688 0.519531 -1.203125 0.625 -1.203125 C 0.769531 -1.203125 0.878906 -1.164062 0.953125 -1.09375 C 1.023438 -1.03125 1.0625 -0.9375 1.0625 -0.8125 L 1.0625 -0.3125 C 1.0625 -0.257812 1.082031 -0.234375 1.125 -0.234375 C 1.144531 -0.234375 1.164062 -0.234375 1.1875 -0.234375 L 1.203125 -0.234375 L 1.21875 -0.03125 C 1.195312 -0.0195312 1.171875 -0.0078125 1.140625 0 C 1.117188 0.0078125 1.085938 0.015625 1.046875 0.015625 C 0.984375 0.015625 0.929688 0 0.890625 -0.03125 C 0.847656 -0.0625 0.816406 -0.101562 0.796875 -0.15625 L 0.78125 -0.15625 C 0.726562 -0.0390625 0.617188 0.015625 0.453125 0.015625 Z M 0.546875 -0.203125 C 0.617188 -0.203125 0.675781 -0.222656 0.71875 -0.265625 C 0.757812 -0.316406 0.78125 -0.378906 0.78125 -0.453125 L 0.78125 -0.578125 L 0.765625 -0.578125 C 0.742188 -0.566406 0.71875 -0.554688 0.6875 -0.546875 C 0.65625 -0.535156 0.613281 -0.523438 0.5625 -0.515625 C 0.5 -0.503906 0.453125 -0.484375 0.421875 -0.453125 C 0.398438 -0.429688 0.390625 -0.398438 0.390625 -0.359375 C 0.390625 -0.304688 0.398438 -0.265625 0.421875 -0.234375 C 0.453125 -0.210938 0.492188 -0.203125 0.546875 -0.203125 Z M 0.546875 -0.203125 "/></g></g><g transform="translate(63.487075, 20.476974)"><g><path d="M 0.8125 -0.28125 L 0.890625 -0.0625 C 0.859375 -0.03125 0.816406 -0.0078125 0.765625 0 C 0.722656 0.0078125 0.671875 0.015625 0.609375 0.015625 C 0.472656 0.015625 0.375 -0.015625 0.3125 -0.078125 C 0.25 -0.148438 0.21875 -0.253906 0.21875 -0.390625 L 0.21875 -0.9375 L 0.03125 -0.9375 L 0.03125 -1.171875 L 0.21875 -1.171875 L 0.21875 -1.40625 L 0.515625 -1.453125 L 0.515625 -1.171875 L 0.84375 -1.171875 L 0.84375 -0.9375 L 0.515625 -0.9375 L 0.515625 -0.40625 C 0.515625 -0.34375 0.523438 -0.296875 0.546875 -0.265625 C 0.566406 -0.242188 0.601562 -0.234375 0.65625 -0.234375 C 0.707031 -0.234375 0.753906 -0.25 0.796875 -0.28125 Z M 0.8125 -0.28125 "/></g></g></g><g fill="#ffffff" fill-opacity="1"><g transform="translate(49.562516, 16.410791)"><g><path d="M 2.9375 -2.171875 C 3.1875 -2.117188 3.382812 -1.992188 3.53125 -1.796875 C 3.675781 -1.609375 3.75 -1.394531 3.75 -1.15625 C 3.75 -0.800781 3.625 -0.519531 3.375 -0.3125 C 3.132812 -0.101562 2.789062 0 2.34375 0 L 0.375 0 L 0.375 -4.234375 L 2.28125 -4.234375 C 2.707031 -4.234375 3.039062 -4.132812 3.28125 -3.9375 C 3.53125 -3.738281 3.65625 -3.472656 3.65625 -3.140625 C 3.65625 -2.890625 3.585938 -2.679688 3.453125 -2.515625 C 3.328125 -2.347656 3.15625 -2.234375 2.9375 -2.171875 Z M 1.40625 -2.515625 L 2.078125 -2.515625 C 2.242188 -2.515625 2.375 -2.550781 2.46875 -2.625 C 2.5625 -2.707031 2.609375 -2.820312 2.609375 -2.96875 C 2.609375 -3.101562 2.5625 -3.207031 2.46875 -3.28125 C 2.375 -3.363281 2.242188 -3.40625 2.078125 -3.40625 L 1.40625 -3.40625 Z M 2.171875 -0.828125 C 2.335938 -0.828125 2.46875 -0.863281 2.5625 -0.9375 C 2.65625 -1.019531 2.703125 -1.140625 2.703125 -1.296875 C 2.703125 -1.441406 2.648438 -1.554688 2.546875 -1.640625 C 2.453125 -1.722656 2.320312 -1.765625 2.15625 -1.765625 L 1.40625 -1.765625 L 1.40625 -0.828125 Z M 2.171875 -0.828125 "/></g></g></g><g fill="#ffffff" fill-opacity="1"><g transform="translate(53.536755, 16.410791)"><g><path d="M 1.90625 0.046875 C 1.570312 0.046875 1.273438 -0.0195312 1.015625 -0.15625 C 0.753906 -0.300781 0.546875 -0.503906 0.390625 -0.765625 C 0.242188 -1.023438 0.171875 -1.332031 0.171875 -1.6875 C 0.171875 -2.03125 0.242188 -2.332031 0.390625 -2.59375 C 0.546875 -2.851562 0.753906 -3.050781 1.015625 -3.1875 C 1.285156 -3.332031 1.585938 -3.40625 1.921875 -3.40625 C 2.242188 -3.40625 2.535156 -3.332031 2.796875 -3.1875 C 3.066406 -3.050781 3.28125 -2.851562 3.4375 -2.59375 C 3.59375 -2.332031 3.671875 -2.03125 3.671875 -1.6875 C 3.671875 -1.332031 3.59375 -1.023438 3.4375 -0.765625 C 3.28125 -0.503906 3.066406 -0.300781 2.796875 -0.15625 C 2.535156 -0.0195312 2.238281 0.046875 1.90625 0.046875 Z M 1.90625 -0.84375 C 2.101562 -0.84375 2.269531 -0.914062 2.40625 -1.0625 C 2.550781 -1.207031 2.625 -1.414062 2.625 -1.6875 C 2.625 -1.957031 2.554688 -2.160156 2.421875 -2.296875 C 2.285156 -2.441406 2.117188 -2.515625 1.921875 -2.515625 C 1.710938 -2.515625 1.539062 -2.441406 1.40625 -2.296875 C 1.28125 -2.160156 1.21875 -1.957031 1.21875 -1.6875 C 1.21875 -1.414062 1.28125 -1.207031 1.40625 -1.0625 C 1.539062 -0.914062 1.707031 -0.84375 1.90625 -0.84375 Z M 1.90625 -0.84375 "/></g></g></g><g fill="#ffffff" fill-opacity="1"><g transform="translate(57.378324, 16.410791)"><g><path d="M 1.90625 0.046875 C 1.570312 0.046875 1.273438 -0.0195312 1.015625 -0.15625 C 0.753906 -0.300781 0.546875 -0.503906 0.390625 -0.765625 C 0.242188 -1.023438 0.171875 -1.332031 0.171875 -1.6875 C 0.171875 -2.03125 0.242188 -2.332031 0.390625 -2.59375 C 0.546875 -2.851562 0.753906 -3.050781 1.015625 -3.1875 C 1.285156 -3.332031 1.585938 -3.40625 1.921875 -3.40625 C 2.242188 -3.40625 2.535156 -3.332031 2.796875 -3.1875 C 3.066406 -3.050781 3.28125 -2.851562 3.4375 -2.59375 C 3.59375 -2.332031 3.671875 -2.03125 3.671875 -1.6875 C 3.671875 -1.332031 3.59375 -1.023438 3.4375 -0.765625 C 3.28125 -0.503906 3.066406 -0.300781 2.796875 -0.15625 C 2.535156 -0.0195312 2.238281 0.046875 1.90625 0.046875 Z M 1.90625 -0.84375 C 2.101562 -0.84375 2.269531 -0.914062 2.40625 -1.0625 C 2.550781 -1.207031 2.625 -1.414062 2.625 -1.6875 C 2.625 -1.957031 2.554688 -2.160156 2.421875 -2.296875 C 2.285156 -2.441406 2.117188 -2.515625 1.921875 -2.515625 C 1.710938 -2.515625 1.539062 -2.441406 1.40625 -2.296875 C 1.28125 -2.160156 1.21875 -1.957031 1.21875 -1.6875 C 1.21875 -1.414062 1.28125 -1.207031 1.40625 -1.0625 C 1.539062 -0.914062 1.707031 -0.84375 1.90625 -0.84375 Z M 1.90625 -0.84375 "/></g></g></g><g fill="#ffffff" fill-opacity="1"><g transform="translate(61.219892, 16.410791)"><g><path d="M 2.4375 0 L 1.40625 -1.40625 L 1.40625 0 L 0.375 0 L 0.375 -4.46875 L 1.40625 -4.46875 L 1.40625 -2 L 2.421875 -3.359375 L 3.703125 -3.359375 L 2.296875 -1.671875 L 3.703125 0 Z M 2.4375 0 "/></g></g></g><g fill="#ffffff" fill-opacity="1"><g transform="translate(64.946872, 16.410791)"><g/></g></g><g fill="#ffffff" fill-opacity="1"><g transform="translate(66.225386, 16.410791)"><g><path d="M 4.15625 0 L 3.125 0 L 1.40625 -2.609375 L 1.40625 0 L 0.375 0 L 0.375 -4.234375 L 1.40625 -4.234375 L 3.125 -1.609375 L 3.125 -4.234375 L 4.15625 -4.234375 Z M 4.15625 0 "/></g></g></g><g fill="#ffffff" fill-opacity="1"><g transform="translate(70.760484, 16.410791)"><g><path d="M 1.90625 0.046875 C 1.570312 0.046875 1.273438 -0.0195312 1.015625 -0.15625 C 0.753906 -0.300781 0.546875 -0.503906 0.390625 -0.765625 C 0.242188 -1.023438 0.171875 -1.332031 0.171875 -1.6875 C 0.171875 -2.03125 0.242188 -2.332031 0.390625 -2.59375 C 0.546875 -2.851562 0.753906 -3.050781 1.015625 -3.1875 C 1.285156 -3.332031 1.585938 -3.40625 1.921875 -3.40625 C 2.242188 -3.40625 2.535156 -3.332031 2.796875 -3.1875 C 3.066406 -3.050781 3.28125 -2.851562 3.4375 -2.59375 C 3.59375 -2.332031 3.671875 -2.03125 3.671875 -1.6875 C 3.671875 -1.332031 3.59375 -1.023438 3.4375 -0.765625 C 3.28125 -0.503906 3.066406 -0.300781 2.796875 -0.15625 C 2.535156 -0.0195312 2.238281 0.046875 1.90625 0.046875 Z M 1.90625 -0.84375 C 2.101562 -0.84375 2.269531 -0.914062 2.40625 -1.0625 C 2.550781 -1.207031 2.625 -1.414062 2.625 -1.6875 C 2.625 -1.957031 2.554688 -2.160156 2.421875 -2.296875 C 2.285156 -2.441406 2.117188 -2.515625 1.921875 -2.515625 C 1.710938 -2.515625 1.539062 -2.441406 1.40625 -2.296875 C 1.28125 -2.160156 1.21875 -1.957031 1.21875 -1.6875 C 1.21875 -1.414062 1.28125 -1.207031 1.40625 -1.0625 C 1.539062 -0.914062 1.707031 -0.84375 1.90625 -0.84375 Z M 1.90625 -0.84375 "/></g></g></g><g fill="#ffffff" fill-opacity="1"><g transform="translate(74.602053, 16.410791)"><g><path d="M 5.203125 -3.359375 L 4.296875 0 L 3.15625 0 L 2.625 -2.1875 L 2.078125 0 L 0.9375 0 L 0.03125 -3.359375 L 1.0625 -3.359375 L 1.53125 -0.953125 L 2.09375 -3.359375 L 3.1875 -3.359375 L 3.765625 -0.96875 L 4.234375 -3.359375 Z M 5.203125 -3.359375 "/></g></g></g></svg>